<mxfile host="app.diagrams.net" modified="2022-10-20T00:21:29.694Z" agent="5.0 (Windows NT 10.0; Win64; x64) AppleWebKit/537.36 (KHTML, like Gecko) Chrome/106.0.0.0 Safari/537.36" etag="XODzeFWfTObIo-k-MsEm" version="20.4.1" type="github">
  <diagram id="HRCQzhakg8QF5JEV10Wz" name="PÃ¡gina-1">
    <mxGraphModel dx="813" dy="435" grid="1" gridSize="10" guides="1" tooltips="1" connect="1" arrows="1" fold="1" page="1" pageScale="1" pageWidth="827" pageHeight="1169" math="0" shadow="0">
      <root>
        <mxCell id="0" />
        <mxCell id="1" parent="0" />
        <mxCell id="9wV4JpstpWKQLf34MO4_-1" value="" style="rounded=0;whiteSpace=wrap;html=1;" parent="1" vertex="1">
          <mxGeometry x="20" y="50" width="770" height="60" as="geometry" />
        </mxCell>
        <mxCell id="9wV4JpstpWKQLf34MO4_-2" value="nav" style="text;html=1;strokeColor=none;fillColor=none;align=center;verticalAlign=middle;whiteSpace=wrap;rounded=0;" parent="1" vertex="1">
          <mxGeometry x="20" y="20" width="60" height="30" as="geometry" />
        </mxCell>
        <mxCell id="9wV4JpstpWKQLf34MO4_-3" value="" style="verticalLabelPosition=bottom;shadow=0;dashed=0;align=center;html=1;verticalAlign=top;strokeWidth=1;shape=mxgraph.mockup.graphics.simpleIcon;strokeColor=#999999;" parent="1" vertex="1">
          <mxGeometry x="30" y="55" width="50" height="50" as="geometry" />
        </mxCell>
        <mxCell id="9wV4JpstpWKQLf34MO4_-4" value="img" style="text;html=1;strokeColor=none;fillColor=none;align=center;verticalAlign=middle;whiteSpace=wrap;rounded=0;" parent="1" vertex="1">
          <mxGeometry x="25" y="65" width="60" height="30" as="geometry" />
        </mxCell>
        <mxCell id="9wV4JpstpWKQLf34MO4_-5" value="" style="verticalLabelPosition=bottom;verticalAlign=top;html=1;shape=mxgraph.basic.rect;fillColor2=none;strokeWidth=1;size=20;indent=5;" parent="1" vertex="1">
          <mxGeometry x="410" y="60" width="370" height="40" as="geometry" />
        </mxCell>
        <mxCell id="9wV4JpstpWKQLf34MO4_-8" value="" style="verticalLabelPosition=bottom;verticalAlign=top;html=1;shape=mxgraph.basic.rect;fillColor2=none;strokeWidth=1;size=20;indent=5;" parent="1" vertex="1">
          <mxGeometry x="420" y="65" width="60" height="30" as="geometry" />
        </mxCell>
        <mxCell id="9wV4JpstpWKQLf34MO4_-9" value="" style="verticalLabelPosition=bottom;verticalAlign=top;html=1;shape=mxgraph.basic.rect;fillColor2=none;strokeWidth=1;size=20;indent=5;" parent="1" vertex="1">
          <mxGeometry x="490" y="65" width="60" height="30" as="geometry" />
        </mxCell>
        <mxCell id="9wV4JpstpWKQLf34MO4_-10" value="" style="verticalLabelPosition=bottom;verticalAlign=top;html=1;shape=mxgraph.basic.rect;fillColor2=none;strokeWidth=1;size=20;indent=5;" parent="1" vertex="1">
          <mxGeometry x="560" y="65" width="60" height="30" as="geometry" />
        </mxCell>
        <mxCell id="9wV4JpstpWKQLf34MO4_-11" value="" style="verticalLabelPosition=bottom;verticalAlign=top;html=1;shape=mxgraph.basic.rect;fillColor2=none;strokeWidth=1;size=20;indent=5;" parent="1" vertex="1">
          <mxGeometry x="630" y="65" width="60" height="30" as="geometry" />
        </mxCell>
        <mxCell id="9wV4JpstpWKQLf34MO4_-12" value="" style="verticalLabelPosition=bottom;verticalAlign=top;html=1;shape=mxgraph.basic.rect;fillColor2=none;strokeWidth=1;size=20;indent=5;" parent="1" vertex="1">
          <mxGeometry x="700" y="65" width="60" height="30" as="geometry" />
        </mxCell>
        <mxCell id="9wV4JpstpWKQLf34MO4_-13" value="ul" style="text;html=1;strokeColor=none;fillColor=none;align=center;verticalAlign=middle;whiteSpace=wrap;rounded=0;" parent="1" vertex="1">
          <mxGeometry x="440" width="60" height="30" as="geometry" />
        </mxCell>
        <mxCell id="9wV4JpstpWKQLf34MO4_-14" value="li &amp;gt; a" style="text;html=1;strokeColor=none;fillColor=none;align=center;verticalAlign=middle;whiteSpace=wrap;rounded=0;" parent="1" vertex="1">
          <mxGeometry x="420" y="65" width="60" height="30" as="geometry" />
        </mxCell>
        <mxCell id="-rPZdnwRe9OkSCMo_A3H-1" value="" style="rounded=0;whiteSpace=wrap;html=1;" vertex="1" parent="1">
          <mxGeometry x="20" y="120" width="770" height="480" as="geometry" />
        </mxCell>
        <mxCell id="-rPZdnwRe9OkSCMo_A3H-2" value="" style="rounded=0;whiteSpace=wrap;html=1;" vertex="1" parent="1">
          <mxGeometry x="110" y="130" width="590" height="460" as="geometry" />
        </mxCell>
        <mxCell id="-rPZdnwRe9OkSCMo_A3H-3" value="" style="rounded=0;whiteSpace=wrap;html=1;" vertex="1" parent="1">
          <mxGeometry x="120" y="140" width="570" height="30" as="geometry" />
        </mxCell>
        <mxCell id="-rPZdnwRe9OkSCMo_A3H-5" value="" style="rounded=0;whiteSpace=wrap;html=1;" vertex="1" parent="1">
          <mxGeometry x="534" y="145" width="120" height="20" as="geometry" />
        </mxCell>
        <mxCell id="-rPZdnwRe9OkSCMo_A3H-6" value="" style="rounded=0;whiteSpace=wrap;html=1;" vertex="1" parent="1">
          <mxGeometry x="660" y="145" width="20" height="20" as="geometry" />
        </mxCell>
        <mxCell id="-rPZdnwRe9OkSCMo_A3H-7" value="" style="rounded=0;whiteSpace=wrap;html=1;" vertex="1" parent="1">
          <mxGeometry x="120" y="180" width="570" height="400" as="geometry" />
        </mxCell>
        <mxCell id="-rPZdnwRe9OkSCMo_A3H-9" value="" style="verticalLabelPosition=bottom;shadow=0;dashed=0;align=center;html=1;verticalAlign=top;strokeWidth=1;shape=mxgraph.mockup.graphics.simpleIcon;strokeColor=#999999;" vertex="1" parent="1">
          <mxGeometry x="126" y="186" width="554" height="224" as="geometry" />
        </mxCell>
        <mxCell id="-rPZdnwRe9OkSCMo_A3H-25" value="" style="group" vertex="1" connectable="0" parent="1">
          <mxGeometry x="130" y="420" width="550" height="90" as="geometry" />
        </mxCell>
        <mxCell id="-rPZdnwRe9OkSCMo_A3H-20" value="" style="rounded=0;whiteSpace=wrap;html=1;" vertex="1" parent="-rPZdnwRe9OkSCMo_A3H-25">
          <mxGeometry width="550" height="90" as="geometry" />
        </mxCell>
        <mxCell id="-rPZdnwRe9OkSCMo_A3H-22" value="&lt;h1 style=&quot;font-family: Lato, sans-serif; text-align: start; font-size: 14px;&quot;&gt;Consejos que aumentaran tu efectividad al trabajar en casa&lt;/h1&gt;" style="text;html=1;strokeColor=none;fillColor=none;align=center;verticalAlign=middle;whiteSpace=wrap;rounded=0;fontSize=14;labelBackgroundColor=default;" vertex="1" parent="-rPZdnwRe9OkSCMo_A3H-25">
          <mxGeometry x="10" y="20" width="400" height="20" as="geometry" />
        </mxCell>
        <mxCell id="-rPZdnwRe9OkSCMo_A3H-23" value="&lt;span style=&quot;font-family: Lato, sans-serif; font-size: medium; text-align: start;&quot;&gt;Eduardo Arroyo&lt;/span&gt;" style="text;html=1;strokeColor=none;fillColor=none;align=center;verticalAlign=middle;whiteSpace=wrap;rounded=0;fontSize=17;labelBackgroundColor=default;" vertex="1" parent="-rPZdnwRe9OkSCMo_A3H-25">
          <mxGeometry y="60" width="140" height="30" as="geometry" />
        </mxCell>
        <mxCell id="-rPZdnwRe9OkSCMo_A3H-24" value="&lt;span style=&quot;font-family: Lato, sans-serif; font-size: medium; text-align: start;&quot;&gt;17 oct 2022&lt;/span&gt;" style="text;html=1;strokeColor=none;fillColor=none;align=center;verticalAlign=middle;whiteSpace=wrap;rounded=0;fontSize=17;labelBackgroundColor=default;" vertex="1" parent="-rPZdnwRe9OkSCMo_A3H-25">
          <mxGeometry x="440" y="60" width="110" height="30" as="geometry" />
        </mxCell>
      </root>
    </mxGraphModel>
  </diagram>
</mxfile>
